HIERARCHY
ROOT Hips
{
	OFFSET -14.64140 90.27770 -84.91600
	CHANNELS 6 Xposition Yposition Zposition Zrotation Xrotation Yrotation
	JOINT Spine
	{
		OFFSET 0.00000 13.20850 -1.60436
		CHANNELS 3 Zrotation Xrotation Yrotation
		JOINT Spine1
		{
			OFFSET 0.00000 8.61716 0.00000
			CHANNELS 3 Zrotation Xrotation Yrotation
			JOINT Spine2
			{
				OFFSET 0.00000 8.61717 0.00000
				CHANNELS 3 Zrotation Xrotation Yrotation
				JOINT Spine3
				{
					OFFSET 0.00000 8.61717 0.00000
					CHANNELS 3 Zrotation Xrotation Yrotation
					JOINT Neck
					{
						OFFSET 0.00000 11.07920 1.10792
						CHANNELS 3 Zrotation Xrotation Yrotation
						JOINT Neck1
						{
							OFFSET 0.00000 7.08032 0.00000
							CHANNELS 3 Zrotation Xrotation Yrotation
							JOINT Head
							{
								OFFSET 0.00000 7.08031 0.00000
								CHANNELS 3 Zrotation Xrotation Yrotation
								End site
								{
									OFFSET 0.00000 0.00000 0.00000
								}
							}
						}
					}
					JOINT RightShoulder
					{
						OFFSET -0.01000 7.91373 5.19711
						CHANNELS 3 Zrotation Xrotation Yrotation
						JOINT RightArm
						{
							OFFSET -18.41580 0.00000 0.00000
							CHANNELS 3 Zrotation Xrotation Yrotation
							JOINT RightForeArm
							{
								OFFSET -29.11090 0.00000 0.00000
								CHANNELS 3 Zrotation Xrotation Yrotation
								JOINT RightHand
								{
									OFFSET -24.65040 0.00000 0.00000
									CHANNELS 3 Zrotation Xrotation Yrotation
									JOINT RightHandThumb1
									{
										OFFSET -5.35114 -0.85590 3.97906
										CHANNELS 3 Zrotation Xrotation Yrotation
										JOINT RightHandThumb2
										{
											OFFSET -4.52789 0.00000 0.00000
											CHANNELS 3 Zrotation Xrotation Yrotation
											JOINT RightHandThumb3
											{
												OFFSET -2.46976 0.00000 0.00000
												CHANNELS 3 Zrotation Xrotation Yrotation
												End site
												{
													OFFSET 0.00000 0.00000 0.00000
												}
											}
										}
									}
									JOINT RightHandIndex1
									{
										OFFSET -14.26970 0.00000 2.88139
										CHANNELS 3 Zrotation Xrotation Yrotation
										JOINT RightHandIndex2
										{
											OFFSET -5.48836 0.00000 0.00000
											CHANNELS 3 Zrotation Xrotation Yrotation
											JOINT RightHandIndex3
											{
												OFFSET -3.01859 0.00000 0.00000
												CHANNELS 3 Zrotation Xrotation Yrotation
												End site
												{
													OFFSET 0.00000 0.00000 0.00000
												}
											}
										}
									}
									JOINT RightHandMiddle1
									{
										OFFSET -14.26970 0.00000 -0.09147
										CHANNELS 3 Zrotation Xrotation Yrotation
										JOINT RightHandMiddle2
										{
											OFFSET -6.17441 0.00000 0.00000
											CHANNELS 3 Zrotation Xrotation Yrotation
											JOINT RightHandMiddle3
											{
												OFFSET -3.56743 0.00000 0.00000
												CHANNELS 3 Zrotation Xrotation Yrotation
												End site
												{
													OFFSET 0.00000 0.00000 0.00000
												}
											}
										}
									}
									JOINT RightHandRing1
									{
										OFFSET -12.69180 0.00000 -3.06433
										CHANNELS 3 Zrotation Xrotation Yrotation
										JOINT RightHandRing2
										{
											OFFSET -5.62556 0.00000 0.00000
											CHANNELS 3 Zrotation Xrotation Yrotation
											JOINT RightHandRing3
											{
												OFFSET -3.56744 0.00000 0.00000
												CHANNELS 3 Zrotation Xrotation Yrotation
												End site
												{
													OFFSET 0.00000 0.00000 0.00000
												}
											}
										}
									}
									JOINT RightHandPinky1
									{
										OFFSET -11.11390 0.00000 -6.03719
										CHANNELS 3 Zrotation Xrotation Yrotation
										JOINT RightHandPinky2
										{
											OFFSET -4.52789 0.00000 0.00000
											CHANNELS 3 Zrotation Xrotation Yrotation
											JOINT RightHandPinky3
											{
												OFFSET -2.46976 0.00000 0.00000
												CHANNELS 3 Zrotation Xrotation Yrotation
												End site
												{
													OFFSET 0.00000 0.00000 0.00000
												}
											}
										}
									}
								}
							}
						}
					}
					JOINT LeftShoulder
					{
						OFFSET 0.01000 7.91373 5.19711
						CHANNELS 3 Zrotation Xrotation Yrotation
						JOINT LeftArm
						{
							OFFSET 18.41580 0.00000 0.00000
							CHANNELS 3 Zrotation Xrotation Yrotation
							JOINT LeftForeArm
							{
								OFFSET 29.11090 0.00000 0.00000
								CHANNELS 3 Zrotation Xrotation Yrotation
								JOINT LeftHand
								{
									OFFSET 24.65040 0.00000 0.00000
									CHANNELS 3 Zrotation Xrotation Yrotation
									JOINT LeftHandThumb1
									{
										OFFSET 5.35114 -0.85590 3.97906
										CHANNELS 3 Zrotation Xrotation Yrotation
										JOINT LeftHandThumb2
										{
											OFFSET 4.52789 0.00000 0.00000
											CHANNELS 3 Zrotation Xrotation Yrotation
											JOINT LeftHandThumb3
											{
												OFFSET 2.46977 0.00000 0.00000
												CHANNELS 3 Zrotation Xrotation Yrotation
												End site
												{
													OFFSET 0.00000 0.00000 0.00000
												}
											}
										}
									}
									JOINT LeftHandIndex1
									{
										OFFSET 14.26970 0.00000 2.88139
										CHANNELS 3 Zrotation Xrotation Yrotation
										JOINT LeftHandIndex2
										{
											OFFSET 5.48836 0.00000 0.00000
											CHANNELS 3 Zrotation Xrotation Yrotation
											JOINT LeftHandIndex3
											{
												OFFSET 3.01859 0.00000 0.00000
												CHANNELS 3 Zrotation Xrotation Yrotation
												End site
												{
													OFFSET 0.00000 0.00000 0.00000
												}
											}
										}
									}
									JOINT LeftHandMiddle1
									{
										OFFSET 14.26970 0.00000 -0.09147
										CHANNELS 3 Zrotation Xrotation Yrotation
										JOINT LeftHandMiddle2
										{
											OFFSET 6.17440 0.00000 0.00000
											CHANNELS 3 Zrotation Xrotation Yrotation
											JOINT LeftHandMiddle3
											{
												OFFSET 3.56744 0.00000 0.00000
												CHANNELS 3 Zrotation Xrotation Yrotation
												End site
												{
													OFFSET 0.00000 0.00000 0.00000
												}
											}
										}
									}
									JOINT LeftHandRing1
									{
										OFFSET 12.69180 0.00000 -3.06433
										CHANNELS 3 Zrotation Xrotation Yrotation
										JOINT LeftHandRing2
										{
											OFFSET 5.62556 0.00000 0.00000
											CHANNELS 3 Zrotation Xrotation Yrotation
											JOINT LeftHandRing3
											{
												OFFSET 3.56744 0.00000 0.00000
												CHANNELS 3 Zrotation Xrotation Yrotation
												End site
												{
													OFFSET 0.00000 0.00000 0.00000
												}
											}
										}
									}
									JOINT LeftHandPinky1
									{
										OFFSET 11.11390 0.00000 -6.03719
										CHANNELS 3 Zrotation Xrotation Yrotation
										JOINT LeftHandPinky2
										{
											OFFSET 4.52789 0.00000 0.00000
											CHANNELS 3 Zrotation Xrotation Yrotation
											JOINT LeftHandPinky3
											{
												OFFSET 2.46976 0.00000 0.00000
												CHANNELS 3 Zrotation Xrotation Yrotation
												End site
												{
													OFFSET 0.00000 0.00000 0.00000
												}
											}
										}
									}
								}
							}
						}
					}
					JOINT pCube4
					{
						OFFSET 0.00000 10.91090 1.10792
						CHANNELS 3 Zrotation Xrotation Yrotation
						End site
						{
							OFFSET 0.00000 0.00000 0.00000
						}
					}
				}
			}
		}
	}
	JOINT RightUpLeg
	{
		OFFSET -9.98441 0.00000 0.00000
		CHANNELS 3 Zrotation Xrotation Yrotation
		JOINT RightLeg
		{
			OFFSET 0.00000 -42.11790 0.00000
			CHANNELS 3 Zrotation Xrotation Yrotation
			JOINT RightFoot
			{
				OFFSET 0.00000 -45.00020 -0.00001
				CHANNELS 3 Zrotation Xrotation Yrotation
				JOINT RightForeFoot
				{
					OFFSET 0.00000 -3.74820 0.00000
					CHANNELS 3 Zrotation Xrotation Yrotation
					JOINT RightToeBase
					{
						OFFSET 0.00000 0.06325 14.43120
						CHANNELS 3 Zrotation Xrotation Yrotation
						End site
						{
							OFFSET 0.00000 0.00000 0.00000
						}
					}
				}
			}
		}
	}
	JOINT LeftUpLeg
	{
		OFFSET 9.98441 0.00000 0.00000
		CHANNELS 3 Zrotation Xrotation Yrotation
		JOINT LeftLeg
		{
			OFFSET 0.00000 -42.11800 0.00000
			CHANNELS 3 Zrotation Xrotation Yrotation
			JOINT LeftFoot
			{
				OFFSET 0.00000 -45.00070 0.00000
				CHANNELS 3 Zrotation Xrotation Yrotation
				JOINT LeftForeFoot
				{
					OFFSET 0.00000 -3.74824 0.00000
					CHANNELS 3 Zrotation Xrotation Yrotation
					JOINT LeftToeBase
					{
						OFFSET 0.00000 0.06325 14.43110
						CHANNELS 3 Zrotation Xrotation Yrotation
						End site
						{
							OFFSET 0.00000 0.00000 0.00000
						}
					}
				}
			}
		}
	}
}
MOTION
Frames: 4
Frame Time: 0.050000
-0.031079791801602044 0.006704818813897062 0.005084144957619976 0.021449033286469178 0.027216237930151634 0.0008083841975061308 5.23019899486413 3.403094714008631 -2.245378810857659 -0.8308452436307497 3.404144740700773 0.4043374799194779 -0.5541106901276008 -0.8561702920142615 1.081372348832431 -0.7897741157516942 -0.4814124650412602 -0.24546391183333252 -0.3128777095300955 11.21445286125484 -0.5417828935516925 -0.01729509996467009 -1.0656613308424723 -1.2618981034672545 0.27694607625571144 -17.754431773797048 -0.07712931074049795 -10.97495468055749 3.8853818908694797 -17.352220640579663 81.87788249507649 -4.543202661741359 13.011076437965755 31.234723530257284 1.701728257232047 95.18580340072351 9.294453362010069 -0.4401145526659402 -3.9761718992047745 4.479316944001486 -0.09185708190118702 -1.565826344808634 -0.03711575863215232 0.0011900665949070072 -56.27054529092322 -0.023007362540289383 0.013112239239987462 -56.277355447554136 -38.792711500309615 -0.042154580306275086 -0.02730718490011056 0.03109176793695199 0.029120744188679007 -0.03065632897497016 -0.04847982303561793 -0.0014765585755923544 -0.028265335992886522 -36.65268450051276 -0.027688022477061355 0.01359215007399921 -0.02907853595875674 -0.016538698170409677 0.044219440360529494 0.02342699284864689 0.03567805506977513 -0.005353134577227503 -19.789904737453064 -0.009706633459584231 -0.032432873917142904 -0.04034850893615665 -0.030150907092968363 -0.021415788872191775 0.009344448354052534 -0.004226052181603282 0.03748879546823004 24.036001276599034 0.012530840526202354 0.025498965870382664 28.899975719979427 -0.00043712925328364766 -0.03758830749298598 28.865474577389985 -0.020456725219332523 0.008702575844800687 10.053404452655148 2.485630507209589 14.248525173818438 -77.19351477774602 18.45097723774696 -13.035928730833328 -9.339334728905136 12.246829210858218 -56.35224177457594 -19.008782595534633 -2.3423717989459556 3.2382656001359424 -0.4375941522869671 0.059369557465980306 -8.117639153315352 -0.015726465264407068 0.03695658770939011 44.526040697474706 -0.023446236341096813 -0.01200615910794718 44.5431007294437 12.432218366273315 -0.01768771961055676 0.04159211337077726 0.0011416976959049685 -0.023974920420805037 0.03685282578011664 0.007856809215183823 -0.017364472035215944 0.003044204234106577 11.079553549997621 -0.012879023350305063 -0.03132683658921687 0.005679663375168888 -0.011294475902562778 0.00704456419878594 -0.03252192862372046 -0.02267724487632431 -0.032553049349528816 4.726295742204983 0.025374295059527933 -0.024218454922887496 0.02770540446364379 -0.018145641134757307 -0.0194130511993096 -0.04096840487976616 -0.010791071169098807 -0.002331649582657254 -5.574779920631998 -0.010445408524001871 -0.02688146261577062 -6.720050926160053 0.031529574359359415 -0.01374384710971353 -6.7064073962332005 -0.011858526404890048 -0.008099666078907632 -0.02189974473531263 0.007517439968576867 0.01813552596168715 8.030939270337218 3.5024633339898137 -19.237578274376695 -0.044198955823994864 10.41197271128051 -0.023693692909455503 -5.622470026931983 -15.612493497536072 3.2255283201964464 -0.03625295998119439 0.02262821511804314 0.03265385294109327 0.00502694431088782 4.745416514779585 -0.00033400807530131353 12.504164743468435 -8.257809030259212 6.908727972998503 0.009239927937873257 46.382655051667605 0.024601957091006224 -4.284848015684249 -14.730430755302294 -3.804281363688713 0.0010217847454083184 0.017830026534038448 -0.04058654773304425 0.005967250441747569 -10.748850363153911 0.0257098663156964 
0.03146766523993193 -0.014003637334997874 -0.0020836672301668283 -0.011696190659799948 0.02211277895790592 0.013357749499835021 5.223853285266774 3.317372339341274 -2.2721406255011267 -0.8320152452834726 3.4470540947181294 0.4610746253506751 -0.569216105051436 -0.8834731317570832 1.2577105379690607 -0.732403443543518 -0.5534378326576294 -0.16056399909949057 -0.1773017751900412 11.202355273042892 -0.8050563006269313 -0.0059136892017028365 -1.0938173840900074 -2.0793605427433084 0.3559090117211072 -17.872229823541605 -0.18006990466810366 -10.908311114149091 3.875036193649599 -17.438087068489455 81.27520046431053 -4.056826069162675 13.158992026688775 30.702883154860153 2.2345145221183187 94.98079428598683 9.600959339479736 -0.45118809709135954 -4.064881032205546 4.513100942215797 -0.14880601614008362 -1.5646200954916085 -0.028820842822387723 -0.004313437938044376 -56.2024172677966 0.016721525519863074 0.0035528509907127447 -56.223108101846684 -38.80203882165855 0.03729284965993126 0.003757993715401234 -0.019413955833585548 -0.027940996901424025 0.005352926717782402 0.022036345448341262 0.009870092205526818 -0.0050186570456670155 -36.742968259194235 -0.01139798672226951 0.03954717736711557 0.011374450515202441 0.021709889797998747 -0.03301090577363644 0.023030134115314696 0.02740687656351321 0.01892912130469313 -19.72251512773229 0.014575221331909749 -0.014438443610696983 0.013535108702269882 -0.002068998468410642 -0.015506495282923985 -0.04381700629245257 -0.028145901942058186 -0.048755267094477694 24.088603263941636 0.01616561500083834 0.049191386949756714 28.83170521884988 -0.03434913523243259 -0.0025793341146042896 28.824255747767747 -0.013837113916505103 0.008751019181789601 9.740830830172023 2.398624517679581 14.345425339077401 -77.29121454105069 18.479166605876134 -11.594124597491867 -7.184438900456145 11.80438230173072 -53.18655989048456 -19.278464872478473 -1.9712181015200059 3.022214813215578 -0.49362822839526405 0.041819920812380965 -8.133649201900322 -0.020778338897675466 -0.04619254626408609 44.519468297270464 0.008325556925723242 0.010890844026074868 44.52036690311868 12.411018594830342 0.048811475003258116 0.0008477344000622687 -0.02150470969638226 -0.03691908561716011 -0.03675295551428673 0.03714219683850456 0.023680576930154244 0.047640351026714045 11.069673788280863 0.03784608837869561 0.0184199074061149 -0.004957915465484911 -0.02463702100237571 -0.022824293129382268 -0.019474482857323623 -0.04580697444114891 0.049665506609576165 4.795429652618521 0.010504992293152925 -0.007938420018530653 0.03189886299904207 0.006134308563640257 -0.043970061911730786 -0.00249147829247337 -0.046085273513125496 -0.007288097329557785 -5.581776776442939 0.01038203090702043 0.03784916561823273 -6.679228933247596 -0.04404670452509885 -0.03504077001715943 -6.706846552655055 -0.04714225800854473 -0.03770137497636104 0.045550734935317645 -0.049272860939125626 -0.008594822074275275 8.05436583412736 3.476541529676323 -19.177114229386714 0.04390593197687317 10.421652251487645 0.005927236760100004 -5.6355474395830765 -15.688562777038216 3.154649430952695 -0.00023813956577783604 -0.03495030131136391 0.015622674466540426 0.002255545341235404 4.692422101257146 -0.0371577389617004 12.449063732559104 -8.229134643113756 6.878410055349746 -0.002949076804421286 46.40881427765041 -0.03748790489206858 -4.324105736346799 -14.792575550639222 -3.8758875059808235 0.005571430836397108 0.04663676792837236 -0.034354621383951234 0.014039816310021802 -10.72127584429388 0.04689088669040236 
-0.039837686198648886 -0.027239482487754124 -0.02280339058517041 -0.02989329534350084 -0.03301885548481021 -0.0236450508819854 5.240412704900358 3.3016455087111427 -2.3020854430035302 -0.804318666546324 3.4936027259645512 0.44275390865962977 -0.5892426028463452 -0.828856011413169 1.32317978355261 -0.7025253621754414 -0.5531610511697077 -0.14674919070174874 -0.016213542215764952 11.175501098184874 -1.0486363635311506 0.025319447092001346 -1.1655798928917271 -2.676981976705818 0.452900019212479 -17.944512788265875 -0.22009013226872795 -10.810870497142757 3.855660780528784 -17.52474642206321 80.8785696173984 -3.6215428389660262 12.981851688796052 30.232532960994032 2.7628674038707373 94.75053775937882 10.039839517175178 -0.46246764609433544 -4.119399712184765 4.541012460083755 -0.12944168363210584 -1.611203255234002 0.006397168611120357 -0.033243161195713446 -56.23468685023814 0.02216387076042265 -0.0018704002320071378 -56.19255502516436 -38.759598605941754 0.006655370488993153 -0.01734407392941735 0.03782908316212665 0.009158040667955458 0.009391311059501627 -0.010424653080541225 -0.03328731896797345 0.009804096334364625 -36.65991114288999 -0.03717886000147605 -0.01720967224591548 0.029435099806492997 0.020340493045325002 -0.043269895257149145 -0.01580902177283557 0.02412997110702202 0.023263337143943776 -19.75116298796705 0.04601384301898029 -0.03429863410949262 0.008566961622480386 0.009457312450241976 0.039679903504551736 -0.004598997511568225 -0.041988040933298935 0.028681411037227374 24.061731283713517 -0.016003483705870392 0.00870658704883258 28.835016029659386 0.009937820292475698 0.047001585968207346 28.83412480081574 -0.009187302339824462 -0.03146966347761802 9.421469027243708 2.3275667740391586 14.415081616253508 -77.42724435467129 18.45032836213524 -10.498523834365383 -5.810213268685925 11.53919874939348 -51.06247013969085 -19.42586282601987 -1.6610603982173398 2.8693690057677927 -0.5141699195066254 0.07678398852910248 -8.111005626995615 0.04838166143443599 -0.033129603398423295 44.59769559126768 0.018355213042842107 0.015235773504254875 44.541444581775814 12.429574463357664 -0.04060741347728628 0.021474645779528817 -0.027375969055477553 -0.020567587574796146 -0.017097778868026894 -0.002851558578704892 0.011697552520252731 -0.03435384228820948 11.075598436058025 -0.04645926473454874 -0.014126121127599983 0.04696669145928491 0.039584393705228815 0.030898364879893295 0.016295213843576243 -0.03820984661963675 -0.02078688072017726 4.724401079536933 0.004184645323142438 -0.014607165618749878 0.011054407816416811 -0.0296908623435716 0.03927918829464014 0.014521787534731882 0.014567660659941363 -0.002683152033176873 -5.560865427560793 0.007203651833828503 0.048332454656766964 -6.696762257947587 -0.025932435882612164 0.0015864964848272451 -6.680868517002405 -0.030057143547355503 -0.010518128442200623 -0.019993327281757258 -0.03636945070605615 -0.02712081734333523 8.040603324134151 3.5045051161054497 -19.208660520272876 0.0023798868645478278 10.411968731532268 0.0313472432743199 -5.617901613300833 -15.68086435437383 3.1690811704292083 0.007133109987075278 -0.007960939769085436 0.043340769150881635 0.028481356209233442 4.647574486306068 -0.0018086685306437766 12.422692444240031 -8.250949847526144 6.847791165649715 -0.03974980730505285 46.385224897242786 -0.02198997782767317 -4.33110999967369 -14.748685705602929 -3.8342582562054752 -0.021058734237559135 -0.034563851320517654 0.0286796741073189 0.0470251066097406 -10.737279572850833 0.030192660732985745 
0.025720496764120828 -0.04988105497114241 0.014945032049456394 0.02942928438283566 0.002074730561924119 -0.0014383219365649077 5.286641201203811 3.1708876804503503 -2.287988157144459 -0.7462564349345612 3.433085782228858 0.4231409000389441 -0.551320392571483 -0.9053532781030612 1.3567564491168964 -0.7336665264945103 -0.5168861725504607 -0.1426070670974777 0.04503045946175297 11.043115781564092 -1.3319915822380313 0.1204652185902958 -1.1914978161434988 -3.31757945078889 0.6481170247397073 -18.055384743155535 -0.2978162694975684 -10.721910920230037 3.8764782321447684 -17.589840096222705 80.54326690886427 -3.1448674210661673 12.603760946229485 29.352985119575184 3.314828329054529 95.09687232043343 10.572472247911309 -0.46916976529485854 -4.350078219439203 4.486048190271022 -0.10101250748717384 -1.6186074894704705 0.027253690128362283 -0.018299320815683674 -56.230483890780626 -0.034760611760077935 0.04942203117184404 -56.194919557449595 -38.79761063251749 0.03779830603527229 -0.04906361013014956 0.0009420322392508192 0.04629606123602505 -0.007116092713121891 -0.025368511166662288 0.03868599139805198 0.02486155672993863 -36.666586107378464 0.0004672513560827841 0.004485849695262243 0.048609308512717574 -0.039471220541098 0.002384246562248812 -0.03151979161093245 0.019911988639452403 -0.04698709762049222 -19.757052012020075 0.04679109605821333 0.025020539859102964 0.03868580908553744 0.024851641484689442 -0.023124263014513206 -0.018783176891579975 0.02692382550030604 0.027306863197661704 24.09690690889487 -0.015515582651515621 -0.0414107238432153 28.815602264435405 -0.002906315677367366 -0.033879183395927694 28.850116517223995 0.031057615729395815 -0.0384405910576503 9.152086234938391 2.27847556581598 14.44730045248729 -77.57042636944718 18.39704998395066 -9.611350138750504 -4.952402825375862 11.292729454414198 -49.90797406519593 -19.716426152803734 -1.604330691415117 2.8330414254655683 -0.4379186873077283 0.11738434250942534 -8.14432187931953 0.012089941369478137 0.02780431504853614 44.57676815164393 0.0003693535051960493 -0.017873343504242495 44.54292830013751 12.45321325162624 -0.03452751029086943 0.0385012341211121 0.04402989670617093 0.03405055600711088 -0.036575206967072914 -0.004804976757352838 -0.012077307457139674 -0.01723626659284766 11.086379327511088 -0.014751244852933864 0.018716059644886585 -0.006468672142064219 0.0426526096675232 0.01679199090811054 -0.03567431691326879 -0.011030932656404915 0.035953126523554646 4.729988329338243 -0.02791697632842919 0.032650537272873266 0.032223160646997304 0.04454510981089432 0.022659452190256734 -0.004884903658098388 -0.002454896896099979 0.014558322960550719 -5.604275009722815 -0.029720074142616074 0.036859254066546734 -6.7087108606772174 0.03292468366113417 0.02866979209144723 -6.73233500361155 -0.03008389110246651 -0.03515242922700109 0.035044463549865894 0.03566000380912807 0.01102309297635758 8.059736569018858 3.523176143249031 -19.19532378801562 -0.03429362897509612 10.43793029793853 0.04653571558964879 -5.640691536306256 -15.623620971159063 3.209586816532104 0.04848843394309991 -0.00041762197458112746 0.013270762754306007 -0.01319974105922724 4.678806729263219 0.03468766474253396 12.452666393969444 -8.234835574792658 6.882661990841113 -0.009485086445277248 46.380467408050514 -0.019582223680899416 -4.286469523047773 -14.785111278170227 -3.848302732129013 0.004734472805147853 -0.039357225128438436 -0.04788701745779206 -0.04942103389803292 -10.776056230388242 0.02482702299005056 
